<svg viewBox="0 0 48 25"><g fill="none" fill-rule="evenodd" transform="translate(-2 -14)"><circle cx="26" cy="26" r="26"/><g fill="#333" fill-rule="nonzero"><path d="M44.737 14H12.205a5.27 5.27 0 00-5.263 5.263v.867H5.158A3.162 3.162 0 002 23.287v5.53a3.162 3.162 0 003.158 3.159h1.784v.866a5.27 5.27 0 005.263 5.263h32.532A5.27 5.27 0 0050 32.842V19.263A5.27 5.27 0 0044.737 14zM5.157 29.87a1.054 1.054 0 01-1.052-1.052v-5.53a1.054 1.054 0 011.053-1.053h1.784v7.635H5.158zm42.738 2.972A3.161 3.161 0 0144.737 36H12.205a3.161 3.161 0 01-3.158-3.158V19.263a3.161 3.161 0 013.158-3.158h32.532a3.161 3.161 0 013.158 3.158v13.58z"/><path d="M21.609 25h-1.844v-1.843a1.053 1.053 0 10-2.105 0V25h-1.843a1.053 1.053 0 100 2.105h1.843v1.844a1.053 1.053 0 102.105 0v-1.844h1.844a1.053 1.053 0 100-2.105zm18.951-2.896c-.581 0-1.052.471-1.052 1.053v5.792a1.053 1.053 0 102.105 0v-5.792c0-.582-.471-1.053-1.053-1.053z"/></g></g></svg>