<svg viewBox="0 0 48 46"><g fill="none" fill-rule="evenodd" transform="translate(-2 -3)"><circle cx="26" cy="26" r="26"/><g fill="#333" fill-rule="nonzero"><path d="M44.593 25.416h-27.19V13.583a3.592 3.592 0 10-4.797-3.387 3.594 3.594 0 002.658 3.465v11.755H8.807a5.352 5.352 0 00-5.345 5.345v10.962c0 .59.479 1.07 1.069 1.07h3.465v4.496c0 .59.48 1.069 1.07 1.069H43.83a1.07 1.07 0 001.069-1.07v-4.496h3.97a1.07 1.07 0 001.068-1.069V30.761a5.35 5.35 0 00-5.345-5.345zm-29.849-15.22a1.45 1.45 0 112.9 0 1.45 1.45 0 01-2.9 0zM42.762 46.22H10.134v-3.428h32.628v3.428zm5.039-5.566H5.6v-9.893a3.21 3.21 0 013.207-3.207h35.786a3.21 3.21 0 013.208 3.207v9.893z"/><path d="M12.623 31.02c-.59 0-1.07.478-1.07 1.068v4.03a1.07 1.07 0 102.139 0v-4.03a1.07 1.07 0 00-1.07-1.069zm26.403-.68a3.487 3.487 0 100 6.974c1.884 0 3.416-1.514 3.487-3.448v-.04a3.491 3.491 0 00-3.487-3.487zm0 4.836a1.35 1.35 0 111.35-1.369c-.039.77-.628 1.37-1.35 1.37zM18.852 31.02a1.07 1.07 0 00-1.069 1.07v4.03a1.07 1.07 0 002.138 0v-4.03a1.07 1.07 0 00-1.069-1.07zm-9.32-16.53a1.07 1.07 0 00.756-1.825 3.858 3.858 0 010-5.44A1.07 1.07 0 108.777 5.71a5.996 5.996 0 000 8.466c.2.2.472.313.756.313z"/><path d="M5.445 16.757a1.069 1.069 0 00.756-1.825c-2.756-2.757-2.754-7.28.006-10.083A1.07 1.07 0 104.683 3.35c-3.58 3.636-3.577 9.51.007 13.094.2.2.473.313.756.313z"/></g></g></svg>